Coordinates
version=1
nRows=65
nColumns=12
inDegrees=yes

Units are S.I. units (second, meters, Newtons, ...)
Angles are in degrees

endheader
time	SC_y	SC_z	SC_x	AC_y	AC_z	AC_x	GH_y	GH_z	GH_yy	EL_x	PS_y
       0.0              -21.72            8.9          31.26          55.75          6.676          2.406          15.89          17.88          101.6          92.35          96.99
     0.043              -21.72          8.899          31.26          55.75          6.673          2.406          15.87          17.87          101.6          92.35           97.0
   0.08601              -21.72          8.899          31.25          55.74          6.671          2.405          15.85          17.87          101.6          92.34          97.01
     0.129              -21.72          8.899          31.25          55.74          6.669          2.404          15.83          17.87          101.6          92.34          97.01
     0.172              -21.73          8.898          31.24          55.74          6.666          2.403          15.82          17.86          101.6          92.34          97.02
     0.215              -21.73          8.898          31.24          55.73          6.663          2.402          15.79          17.86          101.6          92.34          97.03
     0.258              -21.73          8.898          31.23          55.73           6.66          2.401          15.77          17.85          101.6          92.33          97.04
     0.301              -21.73          8.897          31.23          55.72          6.657            2.4          15.75          17.84          101.6          92.33          97.05
     0.344              -21.73          8.897          31.22          55.72          6.654          2.398          15.72          17.84          101.6          92.33          97.06
     0.387              -21.73          8.896          31.22          55.71           6.65          2.397           15.7          17.83          101.6          92.32          97.08
      0.43              -21.73          8.896          31.21           55.7          6.646          2.396          15.67          17.82          101.6          92.32          97.09
     0.473              -21.73          8.895          31.21           55.7          6.642          2.394          15.64          17.82          101.6          92.31           97.1
    0.5161              -21.74          8.895           31.2          55.69          6.637          2.392           15.6          17.81          101.6          92.31          97.12
    0.5591              -21.74          8.894          31.19          55.68          6.632          2.391          15.56           17.8          101.6           92.3          97.14
    0.6021              -21.74          8.894          31.18          55.68          6.627          2.389          15.53          17.79          101.6           92.3          97.15
    0.6451              -21.74          8.893          31.17          55.67          6.621          2.387          15.48          17.78          101.6          92.29          97.17
    0.6881              -21.75          8.892          31.17          55.66          6.615          2.384          15.44          17.77          101.6          92.29          97.19
    0.7311              -21.75          8.891          31.15          55.65          6.608          2.382          15.38          17.75          101.6          92.28          97.22
    0.7741              -21.75           8.89          31.14          55.64          6.601          2.379          15.33          17.74          101.6          92.27          97.24
    0.8171              -21.75           8.89          31.13          55.62          6.592          2.376          15.27          17.73          101.6          92.26          97.27
    0.8601              -21.76          8.888          31.12          55.61          6.583          2.373           15.2          17.71          101.6          92.25           97.3
    0.9031              -21.76          8.887           31.1           55.6          6.574          2.369          15.13          17.69          101.6          92.24          97.33
    0.9461              -21.77          8.886          31.08          55.58          6.563          2.365          15.05          17.67          101.6          92.23          97.37
    0.9891              -21.77          8.884          31.07          55.56           6.55          2.361          14.96          17.65          101.6          92.22          97.41
     1.032              -21.78          8.883          31.05          55.54          6.537          2.356          14.86          17.62          101.6          92.21          97.45
     1.075              -21.78          8.881          31.02          55.52          6.522          2.351          14.75           17.6          101.6          92.19           97.5
     1.118              -21.79          8.879           31.0          55.49          6.505          2.345          14.62          17.56          101.6          92.17          97.56
     1.161               -21.8          8.877          30.97          55.46          6.486          2.338          14.48          17.53          101.6          92.15          97.62
     1.204              -21.81          8.874          30.93          55.43          6.465           2.33          14.32          17.49          101.6          92.13           97.7
     1.247              -21.82          8.871           30.9          55.39           6.44          2.321          14.14          17.45          101.6           92.1          97.78
      1.29              -21.83          8.868          30.85          55.35          6.413          2.311          13.93          17.39          101.6          92.08          97.87
     1.333              -21.84          8.864          30.81           55.3          6.381            2.3           13.7          17.34          101.6          92.04          97.98
     1.376              -21.85           8.86          30.75          55.25          6.344          2.286          13.43          17.27          101.6           92.0           98.1
     1.419              -21.87          8.855          30.68          55.18          6.301          2.271          13.11          17.19          101.6          91.96          98.24
     1.462              -21.89          8.849          30.61          55.11          6.251          2.253          12.74           17.1          101.6          91.91          98.41
     1.505              -21.91          8.841          30.52          55.02          6.193          2.231           12.3          16.99          101.6          91.85           98.6
     1.548              -21.94          8.833          30.41          54.91          6.123          2.206          11.78          16.86          101.6          91.77          98.84
     1.591              -21.98          8.823          30.28          54.79          6.039          2.175          11.16          16.71          101.6          91.69          99.12
     1.634              -22.02          8.811          30.12          54.63          5.937          2.139           10.4          16.52          101.6          91.58          99.46
     1.677              -22.07          8.796          29.93          54.45          5.813          2.094          9.483          16.29          101.6          91.45          99.87
      1.72              -22.13          8.778           29.7          54.22           5.66          2.038          8.347          16.01          101.5          91.29          100.4
     1.763               -22.2          8.755          29.41          53.93          5.469          1.969           6.93          15.66          101.5           91.1          101.0
     1.806               -22.3          8.726          29.04          53.57          5.229          1.882          5.146          15.22          101.5          90.85          101.8
     1.849              -22.42          8.689          28.57           53.1          4.923          1.771          2.877          14.65          101.5          90.53          102.8
     1.892              -22.58          8.642          27.97          52.51          4.532          1.629       -0.02732          13.93          101.5          90.12          104.1
     1.935              -22.78          8.582           27.2          51.76           4.03          1.447         -3.754          13.01          101.4           89.6          105.8
     1.978              -23.03          8.505          26.21          50.79          3.389          1.215         -8.514          11.83          101.4          88.94          108.0
     2.021              -23.35          8.408          24.97          49.57          2.582         0.9229          -14.5          10.35          101.3           88.1          110.7
     2.064              -23.75           8.29          23.46          48.09            1.6         0.5668         -21.79          8.538          101.2          87.08          113.9
     2.107               -24.2          8.153          21.72          46.37          0.461          0.154         -30.25          6.443          101.1          85.89          117.7
      2.15              -24.69          8.005          19.82          44.51        -0.7722         -0.293          -39.4          4.173          101.0          84.61          121.9
     2.193              -25.19          7.857          17.93          42.64         -2.005        -0.7399         -48.56          1.904          100.9          83.33          126.0
     2.236              -25.64           7.72          16.18          40.93         -3.144         -1.153         -57.01        -0.1919          100.8          82.15          129.8
     2.279              -26.03          7.602          14.67          39.44         -4.127         -1.509         -64.31           -2.0          100.8          81.13          133.1
     2.322              -26.35          7.505          13.43          38.22         -4.933         -1.801         -70.29         -3.484          100.7          80.29          135.7
     2.365              -26.61          7.428          12.45          37.26         -5.574         -2.033         -75.05         -4.664          100.6          79.63          137.9
     2.408              -26.81          7.368          11.68           36.5         -6.076         -2.215         -78.78         -5.587          100.6           79.1          139.6
     2.451              -26.97          7.321          11.08          35.91         -6.468         -2.357         -81.68         -6.307          100.6           78.7          140.9
     2.494              -27.09          7.284          10.61          35.45         -6.773         -2.468         -83.95          -6.87          100.5          78.38          141.9
     2.537              -27.18          7.255          10.24          35.08         -7.014         -2.555         -85.74         -7.312          100.5          78.13          142.7
      2.58              -27.26          7.232          9.945           34.8         -7.205         -2.624         -87.16         -7.663          100.5          77.93          143.3
     2.623              -27.32          7.214           9.71          34.56         -7.358          -2.68         -88.29         -7.945          100.5          77.77          143.8
     2.666              -27.37          7.199          9.519          34.38         -7.482         -2.725         -89.21         -8.173          100.5          77.64          144.3
     2.709              -27.41          7.187          9.363          34.22         -7.583         -2.761         -89.97          -8.36          100.5          77.54          144.6
     2.752              -27.44          7.177          9.235           34.1         -7.667         -2.792         -90.59         -8.514          100.5          77.45          144.9
